<?xml version="1.0" standalone="no"?>
<!DOCTYPE svg PUBLIC "-//W3C//DTD SVG 20010904//EN"
 "http://www.w3.org/TR/2001/REC-SVG-20010904/DTD/svg10.dtd">
<svg version="1.0" xmlns="http://www.w3.org/2000/svg"
 width="500.000000pt" height="500.000000pt" viewBox="0 0 500.000000 500.000000"
 preserveAspectRatio="xMidYMid meet">

<g transform="translate(0.000000,500.000000) scale(0.100000,-0.100000)"
fill="#000000" stroke="none">
<path d="M2100 4424 c-200 -27 -474 -115 -630 -201 -268 -149 -506 -374 -673
-634 -40 -63 -103 -195 -148 -309 -52 -133 -109 -389 -109 -492 l0 -30 125 4
c68 2 126 6 129 9 3 2 12 49 21 104 59 367 203 649 451 884 102 96 260 209
373 265 142 71 373 135 549 152 l72 7 0 128 0 129 -27 -1 c-16 -1 -75 -7 -133
-15z"/>
<path d="M2400 4312 l0 -129 73 -7 c107 -11 230 -39 363 -86 203 -69 378 -183
550 -356 236 -238 394 -552 435 -868 7 -53 17 -96 23 -97 6 0 40 -2 76 -4 36
-2 88 -2 117 1 51 6 51 6 48 38 -2 17 -9 74 -15 126 -21 176 -73 337 -178 547
-166 331 -513 664 -833 799 -215 91 -385 137 -596 159 l-63 7 0 -130z"/>
<path d="M2370 3937 c0 -107 2 -126 16 -131 9 -4 19 -4 21 -2 6 6 36 236 31
241 -1 1 -18 6 -35 10 l-33 7 0 -125z"/>
<path d="M2133 4042 c-9 -6 -10 -31 -3 -102 5 -52 10 -106 10 -120 0 -24 3
-26 35 -22 45 5 48 19 40 148 l-7 104 -32 0 c-17 0 -36 -4 -43 -8z"/>
<path d="M2517 4018 c-14 -61 -29 -198 -24 -212 4 -9 15 -16 26 -16 16 0 22
12 35 73 36 170 35 165 12 171 -35 10 -44 7 -49 -16z"/>
<path d="M1917 3998 c-19 -7 -26 -15 -23 -26 3 -10 17 -62 31 -117 15 -55 28
-101 29 -102 1 -1 18 2 38 7 l35 10 -8 53 c-5 28 -14 81 -22 117 -14 71 -25
79 -80 58z"/>
<path d="M2667 4003 c-2 -4 -17 -57 -32 -116 -24 -92 -26 -110 -14 -118 8 -5
20 -8 28 -6 19 3 89 213 76 226 -15 13 -53 23 -58 14z"/>
<path d="M2797 3898 c-66 -158 -68 -170 -28 -181 16 -4 22 2 32 32 7 20 27 69
46 110 18 41 32 75 31 76 -6 5 -47 25 -51 25 -2 0 -16 -28 -30 -62z"/>
<path d="M1705 3918 c-22 -11 -41 -21 -42 -23 -2 -1 23 -51 55 -111 56 -109
57 -110 82 -97 14 7 29 14 34 16 8 3 -68 213 -82 229 -4 3 -25 -3 -47 -14z"/>
<path d="M2905 3794 c-55 -100 -57 -106 -39 -119 11 -8 24 -13 29 -11 6 1 36
47 68 101 44 75 55 100 45 107 -45 30 -43 31 -103 -78z"/>
<path d="M1498 3792 c-21 -15 -38 -32 -38 -37 0 -6 24 -41 53 -78 28 -37 59
-77 68 -89 l16 -22 36 23 36 22 -48 72 c-27 40 -57 86 -67 104 l-19 31 -37
-26z"/>
<path d="M3032 3725 c-34 -52 -62 -98 -62 -103 0 -4 9 -13 19 -19 18 -11 26
-3 90 80 l70 92 -21 22 c-12 13 -24 23 -28 23 -3 0 -34 -43 -68 -95z"/>
<path d="M3166 3664 c-106 -121 -101 -112 -80 -135 18 -20 19 -19 101 63 l83
82 -22 23 c-12 13 -24 23 -27 23 -3 0 -28 -25 -55 -56z"/>
<path d="M1311 3626 l-23 -25 56 -64 c31 -35 69 -73 85 -85 l28 -21 26 27 26
27 -77 83 c-42 45 -82 83 -88 82 -6 0 -21 -11 -33 -24z"/>
<path d="M3240 3535 l-83 -84 25 -12 c24 -10 31 -6 107 57 44 38 81 72 81 75
0 3 -10 15 -23 27 l-23 22 -84 -85z"/>
<path d="M2235 3520 c-49 -24 -102 -99 -111 -155 -19 -122 82 -240 206 -239
173 1 272 187 174 327 -58 82 -179 112 -269 67z"/>
<path d="M1202 3488 l-20 -32 56 -39 c32 -22 74 -53 94 -69 l37 -29 16 25 c9
14 14 30 11 35 -6 10 -140 120 -163 134 -6 4 -19 -6 -31 -25z"/>
<path d="M3332 3439 c-84 -63 -91 -71 -80 -89 7 -11 17 -20 21 -20 5 0 49 27
97 61 l89 61 -16 26 c-9 15 -17 28 -17 28 -1 1 -43 -30 -94 -67z"/>
<path d="M1125 3367 c-8 -12 -15 -26 -15 -32 0 -11 128 -90 173 -108 21 -8 47
7 47 28 0 7 -43 40 -95 73 l-95 61 -15 -22z"/>
<path d="M3440 3344 c-30 -19 -72 -45 -92 -56 -42 -24 -43 -26 -23 -52 16 -21
1 -26 152 56 l61 33 -14 28 c-8 15 -18 27 -22 27 -4 0 -32 -16 -62 -36z"/>
<path d="M1062 3239 c-11 -17 -17 -49 -9 -49 1 0 47 -20 102 -45 89 -40 101
-43 107 -27 14 35 6 43 -90 91 -94 47 -99 48 -110 30z"/>
<path d="M3463 3205 c-51 -25 -93 -48 -93 -53 0 -4 6 -16 13 -26 12 -17 19
-16 113 24 54 23 100 43 102 45 7 6 -22 55 -32 55 -6 -1 -53 -21 -103 -45z"/>
<path d="M1008 3096 c-15 -34 -5 -53 34 -61 18 -4 64 -16 101 -28 59 -18 69
-19 77 -7 18 27 10 37 -42 58 -29 11 -77 29 -106 41 l-52 21 -12 -24z"/>
<path d="M3530 3082 c-107 -37 -115 -42 -106 -70 7 -20 8 -20 69 -2 34 9 81
23 105 29 33 9 42 16 42 34 0 43 -12 44 -110 9z"/>
<path d="M2106 3079 c-111 -27 -248 -140 -331 -273 -96 -154 -150 -334 -161
-537 -7 -117 -7 -117 19 -143 18 -18 37 -26 60 -26 61 0 74 21 96 153 14 86
29 138 55 193 25 53 34 83 30 103 -4 17 0 40 10 57 l15 29 1 -29 c0 -19 11
-39 34 -61 l34 -32 -19 -29 c-37 -54 -62 -109 -75 -161 l-12 -53 84 0 83 0 10
38 c5 20 17 73 26 117 22 110 30 127 57 123 25 -4 28 -11 61 -192 l23 -130 23
125 c47 251 81 420 86 429 9 15 41 12 54 -4 7 -8 18 -54 26 -103 13 -87 75
-405 80 -411 1 -1 22 7 46 18 49 22 129 26 176 9 17 -5 49 -9 71 -7 l40 3 -19
60 c-10 33 -33 82 -51 110 -32 48 -35 50 -83 51 -31 0 -65 9 -90 23 -22 12
-31 19 -20 15 40 -14 145 -16 175 -4 31 13 46 45 42 85 -3 20 -2 20 13 1 9
-12 15 -40 15 -67 0 -31 9 -65 25 -98 28 -55 65 -188 65 -233 0 -37 25 -97 48
-114 29 -22 76 -17 103 12 22 24 24 33 22 112 -7 239 -78 464 -193 612 -80
103 -133 151 -212 191 -101 51 -139 56 -202 29 -77 -33 -122 -35 -191 -10 -77
28 -101 31 -149 19z"/>
<path d="M3548 2952 c-88 -22 -98 -27 -98 -48 0 -13 4 -25 8 -28 10 -6 204 32
214 42 10 11 -3 62 -16 61 -6 -1 -55 -13 -108 -27z"/>
<path d="M930 2906 c-12 -39 1 -86 25 -86 21 0 19 -7 -15 -50 -33 -42 -36 -50
-17 -49 6 0 33 26 59 57 36 43 48 65 48 90 0 51 -15 72 -55 72 -29 0 -35 -4
-45 -34z m68 -25 c4 -28 -17 -45 -35 -29 -14 11 -17 40 -6 52 14 14 38 0 41
-23z"/>
<path d="M1070 2921 c-15 -29 -12 -77 5 -91 20 -17 65 -16 76 1 13 20 11 83
-3 97 -19 19 -66 15 -78 -7z m60 -21 c13 -25 4 -60 -15 -60 -20 0 -30 47 -15
65 16 19 17 19 30 -5z"/>
<path d="M1135 2786 c-25 -27 -42 -53 -39 -58 7 -11 26 4 66 54 45 57 25 60
-27 4z"/>
<path d="M3558 2817 l-88 -10 0 -29 c0 -30 0 -30 48 -24 26 3 78 8 115 12 66
6 68 7 65 33 -4 31 -15 33 -140 18z"/>
<path d="M1005 2740 c-4 -7 -3 -16 3 -22 14 -14 45 -2 40 15 -6 16 -34 21 -43
7z"/>
<path d="M3548 2683 c-68 -4 -68 -4 -68 -33 l0 -30 110 0 110 0 0 35 c0 39 17
36 -152 28z"/>
<path d="M540 2568 c0 -61 27 -229 51 -323 88 -342 270 -645 519 -863 297
-260 689 -430 1030 -449 l120 -6 0 124 0 125 -112 12 c-389 41 -773 249 -1014
548 -138 172 -227 348 -284 562 -18 64 -49 256 -50 300 0 9 -33 12 -130 12
l-130 0 0 -42z"/>
<path d="M3826 2536 c-14 -150 -50 -300 -106 -439 -17 -39 -30 -74 -30 -77 0
-3 33 -6 73 -6 58 0 82 -5 126 -27 42 -21 57 -24 63 -15 4 7 26 68 48 134 43
132 66 248 75 376 4 46 8 93 11 106 4 22 4 22 -124 22 l-129 0 -7 -74z"/>
<path d="M3470 2532 l0 -29 107 -6 c58 -4 107 -6 108 -5 1 2 5 15 8 29 6 24 4
27 -31 33 -20 3 -72 6 -114 6 l-78 0 0 -28z"/>
<path d="M976 2534 c-9 -8 -16 -22 -16 -30 0 -19 27 -18 38 3 13 22 42 10 42
-18 0 -12 -8 -23 -20 -26 -26 -7 -26 -29 0 -36 28 -7 36 -35 16 -55 -16 -16
-18 -16 -32 2 -8 11 -14 26 -14 33 0 7 -6 10 -15 7 -35 -14 -3 -84 39 -84 51
0 88 56 62 95 -9 14 -11 27 -5 36 36 57 -47 121 -95 73z"/>
<path d="M1128 2524 c-8 -18 -9 -34 -2 -52 7 -19 6 -34 -2 -50 -14 -28 -8 -55
17 -78 41 -37 114 20 90 72 -6 14 -8 42 -5 63 7 46 -13 71 -57 71 -22 0 -32
-7 -41 -26z m66 -19 c8 -21 -3 -45 -20 -45 -18 0 -28 24 -20 45 3 8 12 15 20
15 7 0 16 -7 20 -15z m1 -96 c8 -24 -16 -55 -34 -45 -12 8 -15 49 -4 59 13 14
32 7 38 -14z"/>
<path d="M2296 2305 c-26 -132 -52 -245 -58 -252 -16 -20 -46 -15 -62 10 -7
12 -19 51 -26 87 -6 36 -17 88 -23 115 l-11 50 -11 -55 -10 -55 -113 -3 c-80
-2 -112 -6 -112 -15 0 -19 55 -108 95 -155 40 -46 134 -99 224 -126 52 -15
201 -22 214 -10 3 3 -1 24 -9 46 -18 52 -18 142 0 202 13 43 13 59 -4 159 -11
62 -25 141 -33 177 l-13 65 -48 -240z"/>
<path d="M3457 2434 c-4 -4 -7 -15 -7 -25 0 -19 9 -21 120 -39 92 -14 97 -13
102 15 6 28 1 30 -82 40 -30 3 -71 8 -90 11 -20 3 -39 2 -43 -2z"/>
<path d="M1217 2208 c-85 -23 -142 -127 -118 -214 14 -53 64 -110 107 -124
121 -40 239 45 237 172 -2 117 -111 198 -226 166z m146 -33 c36 -26 67 -92 67
-141 -1 -122 -154 -207 -249 -137 -96 72 -91 234 9 286 46 24 135 19 173 -8z"/>
<path d="M1223 2179 c-30 -9 -83 -60 -83 -80 0 -5 13 -9 29 -9 26 0 29 3 27
33 -1 29 2 32 32 35 20 2 32 9 32 18 0 8 -1 14 -2 13 -2 0 -17 -5 -35 -10z"/>
<path d="M1280 2175 c0 -8 9 -15 20 -15 11 0 20 2 20 5 0 2 -9 9 -20 15 -16 9
-20 8 -20 -5z"/>
<path d="M1350 2158 c10 -15 9 -23 -4 -43 l-16 -25 35 0 c19 0 35 4 35 8 0 4
-14 23 -31 42 -17 19 -26 27 -19 18z"/>
<path d="M1220 2128 c0 -7 9 -26 20 -43 l20 -30 0 43 c0 35 -3 42 -20 42 -11
0 -20 -6 -20 -12z"/>
<path d="M1280 2103 l0 -38 25 30 c31 38 31 45 0 45 -22 0 -25 -4 -25 -37z"/>
<path d="M1130 2050 c0 -18 7 -20 55 -20 30 0 55 4 55 10 0 15 -36 30 -74 30
-29 0 -36 -4 -36 -20z"/>
<path d="M1302 2058 c-22 -22 -12 -28 48 -28 53 0 60 2 60 20 0 17 -7 20 -48
20 -26 0 -53 -5 -60 -12z"/>
<path d="M1130 2003 c1 -17 39 -77 40 -62 0 9 9 24 20 34 29 27 25 35 -20 35
-22 0 -40 -3 -40 -7z"/>
<path d="M1280 1950 c0 -33 2 -60 5 -60 3 0 21 6 39 14 30 12 86 77 86 98 0 5
-29 8 -65 8 l-65 0 0 -60z m70 -6 c0 -31 -23 -28 -28 4 -2 15 2 22 12 22 11 0
16 -9 16 -26z"/>
<path d="M1234 1969 c-16 -20 -26 -69 -15 -69 5 0 16 -3 25 -6 12 -4 16 0 16
15 0 13 -6 21 -16 21 -13 0 -14 3 -4 15 6 8 10 19 8 26 -3 8 -7 7 -14 -2z"/>
<path d="M2568 2148 c-43 -25 -58 -54 -58 -111 0 -45 25 -82 218 -327 182
-231 282 -359 347 -445 38 -49 81 -105 97 -124 16 -18 27 -35 25 -37 -2 -2
-24 5 -48 16 -24 11 -63 20 -87 20 -90 0 -151 -105 -107 -186 24 -46 122 -104
482 -290 140 -72 158 -79 222 -82 58 -4 78 0 124 21 l55 25 56 -69 c31 -38 59
-69 64 -69 4 0 28 17 54 38 77 61 458 385 458 389 0 2 -26 37 -59 77 -54 68
-59 79 -65 138 -7 67 -36 140 -78 194 -12 17 -59 78 -103 135 -44 56 -114 148
-156 203 -41 56 -98 125 -125 155 -49 53 -53 55 -110 58 -78 5 -118 -18 -135
-79 -16 -54 -15 -53 -33 -39 -18 15 -118 16 -145 1 -28 -15 -51 -62 -51 -105
l0 -36 -30 16 c-64 33 -141 8 -169 -56 l-19 -41 -63 77 c-35 42 -77 96 -94
119 -16 24 -75 99 -130 168 -55 69 -119 150 -142 180 -65 86 -126 106 -195 66z"/>
<path d="M3310 2135 c0 -11 12 -15 50 -15 28 0 50 -2 50 -4 0 -2 -16 -38 -35
-80 -39 -85 -41 -96 -21 -96 16 0 75 124 83 174 l6 36 -67 0 c-52 0 -66 -3
-66 -15z"/>
<path d="M3496 2117 c-29 -38 -46 -104 -35 -134 11 -31 44 -46 69 -33 41 22
34 102 -10 118 -21 8 -21 8 4 45 33 48 8 52 -28 4z m28 -93 c9 -23 -2 -54 -20
-54 -9 0 -14 10 -14 28 0 42 22 58 34 26z"/>
<path d="M3225 1830 c10 -11 22 -17 27 -14 5 3 1 12 -9 20 -27 20 -39 17 -18
-6z"/>
<path d="M3180 1795 c7 -8 20 -15 29 -15 13 1 13 3 -3 15 -26 19 -42 19 -26 0z"/>
<path d="M1411 1784 c-19 -14 -22 -23 -19 -58 3 -22 0 -53 -5 -69 -20 -61 63
-107 106 -59 20 22 22 63 5 80 -9 9 -9 15 0 24 18 18 14 56 -8 78 -24 24 -48
25 -79 4z m54 -50 c0 -19 -6 -30 -17 -32 -21 -4 -34 34 -17 54 18 22 34 11 34
-22z m0 -94 c0 -16 -6 -26 -18 -28 -19 -4 -32 20 -23 44 9 25 41 13 41 -16z"/>
<path d="M1550 1735 c0 -52 1 -55 25 -55 31 0 52 -34 34 -57 -9 -10 -22 -13
-41 -9 -23 5 -28 2 -28 -14 0 -16 7 -20 38 -20 47 0 72 24 72 68 0 35 -22 62
-51 62 -14 0 -19 7 -19 25 0 20 6 25 35 31 52 9 43 24 -15 24 l-50 0 0 -55z"/>
<path d="M2375 1743 c-45 -11 -75 -63 -37 -63 25 0 49 20 57 48 3 12 5 21 3
21 -2 -1 -12 -4 -23 -6z"/>
<path d="M2290 1690 c0 -27 5 -50 10 -50 6 0 10 12 10 28 0 15 3 37 6 50 5 16
2 22 -10 22 -13 0 -16 -11 -16 -50z"/>
<path d="M2158 1625 c-47 -47 -43 -111 14 -212 40 -71 73 -97 113 -88 34 8 38
8 81 -1 27 -5 35 -1 67 37 55 64 82 125 82 187 0 46 -4 57 -28 78 -34 29 -81
31 -132 7 -33 -16 -37 -16 -70 0 -52 25 -97 22 -127 -8z"/>
<path d="M1739 1572 c-45 -37 -21 -118 33 -110 30 5 34 -2 18 -33 -7 -12 -21
-19 -40 -19 -19 0 -30 -5 -30 -14 0 -23 36 -29 68 -12 34 18 52 60 52 122 0
34 -5 47 -26 63 -33 26 -45 26 -75 3z m59 -50 c3 -26 0 -32 -17 -32 -24 0 -37
35 -20 56 18 22 34 12 37 -24z"/>
<path d="M1892 1574 c-17 -12 -22 -24 -21 -57 1 -23 -2 -53 -6 -67 -15 -58 77
-102 111 -55 17 23 18 67 3 82 -8 8 -8 17 0 31 15 29 14 39 -9 62 -24 24 -48
25 -78 4z m61 -33 c6 -26 -7 -45 -27 -38 -23 9 -21 57 3 57 10 0 21 -9 24 -19z
m2 -91 c8 -26 -1 -40 -26 -40 -22 0 -34 22 -25 45 8 22 44 18 51 -5z"/>
<path d="M2687 1504 c-36 -19 -36 -38 1 -29 34 8 43 17 34 32 -5 8 -14 7 -35
-3z"/>
<path d="M2706 1429 c-25 -14 -35 -24 -28 -31 11 -11 92 26 92 42 0 15 -21 11
-64 -11z"/>
<path d="M2820 1260 c-63 -25 -260 -68 -347 -76 l-73 -7 0 -123 0 -124 48 0
c68 0 215 18 294 36 l68 16 0 49 c0 66 18 105 73 160 44 43 46 46 31 67 -18
26 -33 26 -94 2z"/>
</g>
</svg>
